<svg width="32" height="32" viewBox="0 0 32 32" fill="none" xmlns="http://www.w3.org/2000/svg">
<g clip-path="url(#clip0_651_715)">
<path d="M31.9542 20.8645L31.9624 20.8618L27.8448 8.50912C28.5789 8.15744 29.0909 7.4133 29.0909 6.54644C29.0909 5.3433 28.1122 4.36462 26.9091 4.36462H18.7366C18.8413 4.13689 18.9091 3.89505 18.9091 3.63732C18.9091 2.58834 17.75 0.000976562 16 0.000976562C14.2499 0.000976562 13.0909 2.58828 13.0909 3.63725C13.0909 3.89498 13.1587 4.13682 13.2634 4.36455H5.09094C3.8878 4.36455 2.90912 5.34323 2.90912 6.54637C2.90912 7.4133 3.42109 8.15744 4.15521 8.50906L0.0376364 20.8617L0.0458182 20.8644C0.0216818 20.937 0 21.0112 0 21.0918C0 23.8987 2.28409 26.1828 5.09094 26.1828C7.89778 26.1828 10.1819 23.8987 10.1819 21.0918C10.1819 21.0111 10.1602 20.937 10.1361 20.8644L10.1442 20.8617L6.027 8.51015C6.30055 8.37651 6.54485 8.1871 6.74148 7.95051C9.08817 9.15099 11.6577 9.85585 14.2801 10.0802C13.8188 18.3129 12.8712 25.5976 12.5023 27.6374H11.6363C10.0319 27.6373 8.72728 28.942 8.72728 30.5464V31.2737C8.72728 31.6757 9.05258 32.001 9.45458 32.001H22.5455C22.9475 32.001 23.2728 31.6757 23.2728 31.2737V30.5464C23.2728 28.942 21.9681 27.6373 20.3637 27.6373H19.4977C19.1288 25.5975 18.1812 18.3128 17.7199 10.0802C20.3423 9.85585 22.9118 9.15092 25.2585 7.95044C25.4552 8.18703 25.6994 8.37651 25.973 8.51008L21.8558 20.8616L21.864 20.8644C21.8399 20.9369 21.8182 21.011 21.8182 21.0918C21.8182 23.8987 24.1023 26.1828 26.9091 26.1828C29.716 26.1828 32.0001 23.8987 32.0001 21.0918C32 21.0112 31.9784 20.937 31.9542 20.8645ZM16 1.45543C16.63 1.45543 17.4546 3.05341 17.4546 3.63725C17.4546 3.93412 16.8878 4.36455 16 4.36455C15.1123 4.36455 14.5455 3.93412 14.5455 3.63725C14.5454 3.05348 15.37 1.45543 16 1.45543ZM5.09094 24.7282C3.33457 24.7282 1.8658 23.4768 1.52775 21.8191H8.65419C8.31607 23.4768 6.8473 24.7282 5.09094 24.7282ZM8.44576 20.3646H1.73605L5.09087 10.3007L8.44576 20.3646ZM20.3637 29.0919C21.1655 29.0919 21.8182 29.7446 21.8182 30.5464H10.1818C10.1818 29.7446 10.8345 29.0919 11.6363 29.0919H20.3637ZM18.0199 27.6373H13.9801C14.4348 24.9826 15.3083 17.7244 15.7331 10.1668C15.8224 10.168 15.9106 10.1827 16 10.1827C16.0894 10.1827 16.1776 10.168 16.267 10.1668C16.6917 17.7244 17.5653 24.9826 18.0199 27.6373ZM25.8104 6.29921C25.608 6.21821 25.3793 6.23389 25.1868 6.33971C19.5831 9.46469 12.4169 9.46469 6.81321 6.33971C6.7031 6.27862 6.58166 6.24739 6.4588 6.24739C6.36791 6.24739 6.27628 6.26444 6.18962 6.29921C5.9865 6.38021 5.83023 6.5478 5.76491 6.75658C5.66619 7.07049 5.40198 7.2736 5.09094 7.2736C4.68962 7.27367 4.36364 6.94762 4.36364 6.54637C4.36364 6.14512 4.68962 5.81908 5.09094 5.81908H26.9091C27.3104 5.81908 27.6364 6.14505 27.6364 6.54637C27.6364 6.94762 27.3104 7.27367 26.9091 7.27367C26.598 7.27367 26.3338 7.07055 26.2352 6.75664C26.1698 6.5478 26.0135 6.38014 25.8104 6.29921ZM26.9091 10.3006L30.264 20.3645H23.5542L26.9091 10.3006ZM26.9091 24.7282C25.1528 24.7282 23.684 23.4768 23.3459 21.8191H30.4724C30.1343 23.4768 28.6655 24.7282 26.9091 24.7282Z" fill="white"/>
</g>
<defs>
<clipPath id="clip0_651_715">
<rect width="32" height="32" fill="white"/>
</clipPath>
</defs>
</svg>
