<svg width="32" height="32" viewBox="0 0 32 32" fill="none" xmlns="http://www.w3.org/2000/svg">
<g clip-path="url(#clip0_651_702)">
<path d="M15.9987 4.36221C14.3935 4.36221 13.0881 5.66762 13.0881 7.27276C13.0881 8.8779 14.3935 10.1832 15.9987 10.1832C17.6038 10.1832 18.9092 8.87783 18.9092 7.27276C18.9092 5.66769 17.6038 4.36221 15.9987 4.36221ZM15.9987 8.72871C15.1961 8.72871 14.5427 8.07533 14.5427 7.27276C14.5427 6.47019 15.1961 5.81681 15.9987 5.81681C16.8013 5.81681 17.4546 6.47019 17.4546 7.27276C17.4546 8.07533 16.8013 8.72871 15.9987 8.72871Z" fill="white"/>
<path d="M31.2729 13.0911C31.6749 13.0911 32.0002 12.7678 32.0002 12.3659V9.45709C32.0002 9.20072 31.8653 8.96284 31.6443 8.83213L17.4177 0.383449C17.4113 0.379153 17.4049 0.375608 17.3986 0.372063C16.5143 -0.11796 15.5172 -0.132824 14.5818 0.382017L0.355963 8.83213C0.135054 8.96277 0.00012207 9.20072 0.00012207 9.45709V12.3659C0.00012207 12.7678 0.325418 13.0911 0.727418 13.0911H2.90924V26.1826C1.30478 26.1826 0.00012207 27.4872 0.00012207 29.0914V31.273C0.00012207 31.675 0.325418 32.0003 0.727418 32.0003H31.2729C31.6749 32.0003 32.0002 31.675 32.0002 31.273V29.0914C32.0002 27.4872 30.6955 26.1826 29.0911 26.1826V13.0911H31.2729ZM30.5456 29.0911V30.5457H1.45465V29.0911C1.45465 28.2893 2.10735 27.6366 2.90917 27.6366H3.63647H28.3638H29.0911C29.8929 27.6365 30.5456 28.2893 30.5456 29.0911ZM4.36376 26.182V13.0911H7.27288V26.182H4.36376ZM8.7274 26.182V13.0911H13.091V26.182H8.7274ZM14.5456 26.182V13.0911H17.4547V26.182H14.5456ZM18.9092 26.182V13.0911H23.2728V26.182H18.9092ZM24.7274 26.182V13.0911H27.6366V26.182H24.7274ZM1.45465 11.6366V9.86884L15.3034 1.64154C15.7565 1.39227 16.238 1.39295 16.6855 1.63656L30.5456 9.86884V11.6366H1.45465Z" fill="white"/>
</g>
<defs>
<clipPath id="clip0_651_702">
<rect width="32" height="32" fill="white" transform="translate(0.00012207)"/>
</clipPath>
</defs>
</svg>
