<svg width="21" height="20" viewBox="0 0 21 20" fill="none" xmlns="http://www.w3.org/2000/svg">
<g clip-path="url(#clip0_952_2289)">
<path d="M10.1156 19.3764C15.2933 19.3764 19.4906 15.1791 19.4906 10.0014C19.4906 4.82373 15.2933 0.626404 10.1156 0.626404C4.93793 0.626404 0.740601 4.82373 0.740601 10.0014C0.740601 15.1791 4.93793 19.3764 10.1156 19.3764Z" fill="#ED4C5C"/>
<path d="M6.9906 8.87744L9.4906 10.6274L8.5531 7.75244L11.0531 5.93994H7.95935L6.9906 3.12744L6.0531 5.93994H2.9281L5.4281 7.75244L4.4906 10.6274L6.9906 8.87744Z" fill="#FFE62E"/>
<path d="M11.1469 11.0318L10.4281 11.1882L11.1156 11.4697V12.1891L11.5844 11.6574L12.2719 11.9076L11.8656 11.3133L12.3031 10.7503L11.5844 10.9067L11.1469 10.3124V11.0318Z" fill="#FFE62E"/>
<path d="M12.2094 8.90688L11.6781 9.37605L12.3969 9.3135L12.7094 10.0016L12.8344 9.28222L13.5531 9.21966L12.9281 8.84433L13.0844 8.12494L12.5531 8.59411L11.9281 8.21877L12.2094 8.90688Z" fill="#FFE62E"/>
<path d="M12.3969 6.47179L12.6156 7.19118L12.8344 6.50307H13.5531L12.9906 6.06518L13.2094 5.34579L12.6156 5.78368L12.0531 5.31451L12.2719 6.0339L11.6781 6.44052L12.3969 6.47179Z" fill="#FFE62E"/>
<path d="M11.1469 3.97079V4.69018L11.5844 4.0959L12.3031 4.25229L11.8656 3.68929L12.2719 3.09501L11.5844 3.37651L11.1156 2.81351V3.5329L10.4281 3.8144L11.1469 3.97079Z" fill="#FFE62E"/>
</g>
<defs>
<clipPath id="clip0_952_2289">
<rect width="20" height="20" fill="white" transform="translate(0.115601)"/>
</clipPath>
</defs>
</svg>
