<svg width="90" height="90" viewBox="0 0 90 90" fill="none" xmlns="http://www.w3.org/2000/svg">
<circle cx="45" cy="45" r="45" fill="#203045"/>
<path d="M66.62 26.319H57.977V24.363C57.977 22.509 56.657 21 55.034 21H34.587C32.964 21 31.643 22.508 31.643 24.363V26.319H23C22.448 26.319 22 26.767 22 27.319V33.072C22 38.8 26.525 43.478 32.19 43.76C32.348 44.389 32.529 45.012 32.756 45.618C33.963 48.832 36.481 51.341 39.596 52.683C39.377 54.535 38.909 56.572 38.165 57.597C37.259 57.773 36.111 58.161 35.238 59.021C34.6 59.649 34.202 60.426 34.042 61.336H31.739C31.187 61.336 30.739 61.784 30.739 62.336V67.256C30.739 67.808 31.187 68.256 31.739 68.256H57.882C58.435 68.256 58.882 67.808 58.882 67.256V62.336C58.882 61.784 58.435 61.336 57.882 61.336H55.882C55.722 60.426 55.324 59.649 54.686 59.021C53.694 58.045 52.35 57.679 51.414 57.54C50.694 56.497 50.24 54.5 50.025 52.681C53.143 51.336 55.666 48.821 56.871 45.606C57.096 45.004 57.276 44.385 57.433 43.76C63.097 43.479 67.621 38.8 67.621 33.072V27.319C67.62 26.767 67.172 26.319 66.62 26.319ZM24 33.072V28.319H31.643V39.38C31.643 40.179 31.711 40.963 31.812 41.739C27.429 41.281 24 37.57 24 33.072ZM54.963 63.336H56.881V66.256H32.739V63.336H34.96H54.963ZM50.337 59.453C50.374 59.452 52.249 59.423 53.287 60.452C53.538 60.7 53.718 60.993 53.828 61.336H44.939H36.094C36.205 60.993 36.385 60.7 36.635 60.452C37.672 59.425 39.564 59.45 39.609 59.454L50.337 59.453ZM40.504 57.454C41.051 56.155 41.358 54.617 41.528 53.343C42.584 53.614 43.683 53.765 44.809 53.765C44.821 53.765 44.833 53.765 44.845 53.765C45.958 53.762 47.046 53.611 48.091 53.342C48.261 54.616 48.568 56.154 49.116 57.453L40.504 57.454ZM55.977 39.379C55.977 41.308 55.647 43.167 54.997 44.904C53.464 48.995 49.382 51.752 44.84 51.764C44.83 51.764 44.82 51.764 44.81 51.764C40.258 51.764 36.168 49.014 34.628 44.913C33.975 43.172 33.643 41.31 33.643 39.378V24.363C33.643 23.624 34.075 23 34.587 23H55.034C55.546 23 55.977 23.624 55.977 24.363V39.379ZM65.62 33.072C65.62 37.569 62.192 41.281 57.809 41.738C57.91 40.962 57.977 40.178 57.977 39.379V28.319H65.62V33.072Z" fill="#0494FC"/>
<path d="M50.874 31.685H47.824C47.785 31.685 47.751 31.66 47.739 31.622L46.797 28.722C46.512 27.845 45.732 27.278 44.81 27.278C43.888 27.278 43.108 27.845 42.823 28.722L41.881 31.622C41.869 31.66 41.835 31.685 41.796 31.685H38.747C37.825 31.685 37.045 32.251 36.76 33.128C36.475 34.005 36.773 34.922 37.519 35.465L39.985 37.257C40.017 37.28 40.03 37.321 40.018 37.358L39.076 40.258C38.791 41.135 39.089 42.052 39.835 42.594C40.208 42.865 40.636 43.001 41.063 43.001C41.491 43.001 41.918 42.865 42.292 42.594L44.759 40.802C44.79 40.78 44.833 40.78 44.864 40.802L47.331 42.594C48.077 43.136 49.042 43.136 49.788 42.594C50.534 42.052 50.832 41.135 50.547 40.258L49.605 37.358C49.593 37.321 49.606 37.28 49.638 37.257L52.105 35.465C52.851 34.923 53.149 34.006 52.864 33.129C52.579 32.252 51.796 31.685 50.874 31.685ZM50.927 33.847L48.461 35.639C47.726 36.172 47.42 37.111 47.7 37.975L48.642 40.875C48.652 40.905 48.663 40.937 48.61 40.975C48.555 41.013 48.53 40.994 48.505 40.975L46.038 39.183C45.67 38.916 45.24 38.783 44.809 38.783C44.378 38.783 43.948 38.917 43.58 39.183L41.113 40.975C41.087 40.994 41.062 41.014 41.008 40.975C40.955 40.937 40.965 40.905 40.975 40.875L41.917 37.974C42.197 37.111 41.892 36.172 41.158 35.638L38.691 33.846C38.665 33.827 38.638 33.807 38.658 33.745C38.678 33.683 38.711 33.683 38.743 33.683H41.792C42.7 33.683 43.499 33.102 43.78 32.239L44.722 29.339C44.742 29.277 44.872 29.277 44.892 29.339L45.834 32.24C46.116 33.103 46.914 33.683 47.821 33.683H50.871C50.903 33.683 50.936 33.683 50.956 33.745C50.98 33.809 50.953 33.828 50.927 33.847Z" fill="#0494FC"/>
</svg>
