<svg width="21" height="20" viewBox="0 0 21 20" fill="none" xmlns="http://www.w3.org/2000/svg">
<g clip-path="url(#clip0_952_2298)">
<path d="M0.740601 10.0018C0.740601 11.8455 1.27185 13.5643 2.1781 15.0018H18.0219C18.9281 13.5643 19.4594 11.8455 19.4594 10.0018C19.4594 8.15802 18.9281 6.43927 18.0219 5.00177L2.1781 5.00177C1.27185 6.43927 0.740601 8.15802 0.740601 10.0018Z" fill="#FFCE31"/>
<path d="M18.0531 5.00298C16.3969 2.37703 13.4593 0.626404 10.1156 0.626404C6.77185 0.626404 3.83435 2.37703 2.1781 5.00298H18.0531Z" fill="#ED4C5C"/>
<path d="M2.1781 15.0001C3.83435 17.626 6.77185 19.3766 10.1156 19.3766C13.4593 19.3766 16.3969 17.626 18.0531 15.0001H2.1781Z" fill="#ED4C5C"/>
<path d="M2.9906 8.96863H3.9906V9.53221H2.9906V8.96863Z" fill="#C8B100"/>
<path d="M2.9906 13.095H4.02185V13.6273H2.9906V13.095Z" fill="#C8B100"/>
<path d="M2.89685 12.2187C2.8031 12.2814 2.7406 12.3441 2.7406 12.3755C2.7406 12.4069 2.77185 12.4383 2.83435 12.4696C2.89685 12.501 2.95935 12.5637 2.9281 12.6265C2.9906 12.5637 3.02185 12.501 3.02185 12.4383C3.02185 12.3441 2.95935 12.25 2.89685 12.2187Z" fill="#ED4C5C"/>
<path d="M3.14685 9.53122H3.8656V13.095H3.14685V9.53122Z" fill="white"/>
<path d="M4.61559 10.8441C4.45934 10.7816 4.17809 10.719 3.86559 10.719C3.77184 10.719 3.64684 10.719 3.52184 10.7503C3.08434 10.8129 2.74059 11.0005 2.77184 11.1256L2.61559 10.7816C2.58434 10.6252 2.95934 10.4376 3.42809 10.3438C3.58434 10.3125 3.74059 10.3125 3.86559 10.3125C4.17809 10.3125 4.45934 10.3438 4.61559 10.4063V10.8441Z" fill="#ED4C5C"/>
<path d="M3.14685 11.3169C2.95935 11.3169 2.8031 11.2539 2.8031 11.1594C2.8031 11.0964 2.8656 11.0019 2.9906 10.9389H3.1781L3.14685 11.3169Z" fill="#ED4C5C"/>
<path d="M3.8656 11.0318C3.9906 11.0633 4.08435 11.0948 4.14685 11.1263C4.1781 11.1578 4.0531 11.2838 3.8656 11.3783V11.0318Z" fill="#ED4C5C"/>
<path d="M2.67815 12.0014C2.6469 11.9388 2.86565 11.8137 3.1469 11.7199C3.2719 11.6886 3.36565 11.626 3.5219 11.5635C3.8969 11.4071 4.2094 11.1882 4.1469 11.1256L4.2094 11.5009C4.24065 11.5635 3.99065 11.7512 3.61565 11.9388C3.49065 12.0014 3.2719 12.0952 3.1469 12.1265C2.92815 12.189 2.74065 12.3142 2.74065 12.3454L2.67815 12.0014Z" fill="#ED4C5C"/>
<path d="M9.70935 8.96863H10.7094V9.53221H9.70935V8.96863Z" fill="#C8B100"/>
<path d="M9.6781 13.095H10.7094V13.6273H9.6781V13.095Z" fill="#C8B100"/>
<path d="M10.8031 12.2187C10.8969 12.2814 10.9594 12.3441 10.9594 12.3755C10.9594 12.4069 10.9281 12.4383 10.8656 12.4696C10.8031 12.5324 10.7406 12.6265 10.7719 12.6579C10.7094 12.5951 10.6781 12.5324 10.6781 12.4696C10.6781 12.3441 10.7406 12.25 10.8031 12.2187Z" fill="#ED4C5C"/>
<path d="M9.83435 9.53122H10.5531V13.095H9.83435V9.53122Z" fill="white"/>
<path d="M9.08435 10.8453C9.2406 10.7828 9.52185 10.7202 9.83435 10.7202C9.9281 10.7202 10.0531 10.7202 10.1781 10.7515C10.6156 10.814 10.9594 11.0017 10.9281 11.1268L11.0844 10.7515C11.1156 10.5951 10.7406 10.4075 10.2719 10.3137H9.83435C9.52185 10.3137 9.2406 10.345 9.08435 10.4075V10.8453Z" fill="#ED4C5C"/>
<path d="M10.5531 11.3169C10.7406 11.3169 10.8969 11.2539 10.8969 11.1594C10.8969 11.0964 10.8344 11.0019 10.7094 10.9389H10.5219L10.5531 11.3169Z" fill="#ED4C5C"/>
<path d="M9.83438 11.0327C9.70938 11.0642 9.61563 11.0957 9.55313 11.1272C9.52188 11.1587 9.64688 11.2847 9.83438 11.3792V11.0327Z" fill="#ED4C5C"/>
<path d="M11.0218 12.0022C11.053 11.9396 10.8343 11.8145 10.553 11.7207C10.428 11.6894 10.3343 11.6269 10.178 11.5643C9.80305 11.4079 9.49055 11.189 9.55305 11.1264L9.49055 11.5018C9.4593 11.5643 9.7093 11.752 10.0843 11.9396C10.2093 12.0022 10.428 12.096 10.553 12.1273C10.7718 12.1899 10.9593 12.3463 10.928 12.3775L11.0218 12.0022Z" fill="#ED4C5C"/>
<path d="M6.83435 6.96866C7.4281 6.96866 8.64685 7.09377 9.08435 7.53165C8.6156 8.65764 7.8656 8.18848 6.83435 8.18848C5.83435 8.18848 5.0531 8.65764 4.58435 7.53165C5.02185 7.09377 6.20935 6.96866 6.83435 6.96866Z" fill="#ED4C5C"/>
<path d="M8.3656 8.22037C7.9906 8.00143 7.4281 7.97015 6.83435 7.97015C6.2406 7.97015 5.6781 8.03271 5.3031 8.22037L5.4281 8.75209C5.77185 8.84592 6.27185 8.90848 6.83435 8.90848C7.39685 8.90848 7.8656 8.84592 8.2406 8.75209L8.3656 8.22037Z" fill="#C8B100"/>
<path d="M8.89685 6.87547C8.77185 6.78164 8.52185 6.68781 8.3031 6.68781C8.20935 6.68781 8.1156 6.68781 8.02185 6.71909C8.02185 6.71909 7.83435 6.46887 7.39685 6.46887C7.2406 6.46887 7.1156 6.50014 6.9906 6.5627V6.53142C6.95935 6.46887 6.89685 6.40631 6.83435 6.40631C6.77185 6.40631 6.6781 6.50014 6.6781 6.5627V6.59398C6.5531 6.53142 6.4281 6.50014 6.27185 6.50014C5.83435 6.50014 5.64685 6.78164 5.64685 6.75036C5.5531 6.71909 5.45935 6.71909 5.3656 6.71909C3.9281 6.71909 4.64685 7.68869 4.64685 7.68869L4.8031 7.50102C4.45935 7.06314 4.77185 6.81292 5.39685 6.81292C5.4906 6.81292 5.5531 6.81292 5.6156 6.84419C5.39685 7.15697 5.8031 7.43847 5.8031 7.43847L5.89685 7.28208C5.6781 7.12569 5.64685 6.59398 6.27185 6.59398C6.4281 6.59398 6.5531 6.62525 6.6781 6.71909C6.6781 6.75036 6.64685 7.18825 6.6156 7.2508L6.8656 7.46974L7.1156 7.2508C7.08435 7.15697 7.0531 6.75036 7.0531 6.71909C7.14685 6.65653 7.3031 6.59398 7.45935 6.59398C8.1156 6.59398 8.1156 7.12569 7.83435 7.28208L7.9281 7.43847C7.9281 7.43847 8.27185 7.15697 8.1156 6.84419C8.1781 6.84419 8.27185 6.81292 8.33435 6.81292C9.08435 6.81292 9.1156 7.37591 8.9281 7.50102L9.0531 7.68869C8.9906 7.68869 9.33435 7.2508 8.89685 6.87547Z" fill="#C8B100"/>
<path d="M6.64685 6.28284C6.64685 6.18834 6.7406 6.09384 6.83435 6.09384C6.95935 6.09384 7.02185 6.18834 7.02185 6.28284C7.02185 6.37733 6.9281 6.47183 6.83435 6.47183C6.7406 6.47183 6.64685 6.37733 6.64685 6.28284Z" fill="#005BBF"/>
<path d="M6.77185 5.7511V5.84505H6.6781V5.939H6.77185V6.25216H6.64685V6.34611H7.02185L7.0531 6.28347L7.02185 6.25216H6.89685V5.939H6.9906V5.84505H6.89685V5.7511H6.77185Z" fill="#C8B100"/>
<path d="M6.83435 8.84624C6.33435 8.84624 5.89685 8.78324 5.5531 8.68874C5.89685 8.59425 6.33435 8.53125 6.83435 8.53125C7.33435 8.53125 7.77185 8.59425 8.1156 8.68874C7.8031 8.78324 7.33435 8.84624 6.83435 8.84624Z" fill="#ED4C5C"/>
<path d="M6.8656 14.2518C6.27185 14.2518 5.70935 14.0955 5.20935 13.8767C4.83435 13.6891 4.6156 13.3452 4.6156 12.9388V11.4383H9.1156V12.9388C9.1156 13.3452 8.8656 13.7204 8.52185 13.8767C8.02185 14.1268 7.45935 14.2518 6.8656 14.2518Z" fill="white"/>
<path d="M6.83435 8.9375H9.08435V11.4384H6.83435V8.9375Z" fill="white"/>
<path d="M6.8656 12.9379C6.8656 13.5319 6.3656 14.0008 5.7406 14.0008C5.1156 14.0008 4.6156 13.5319 4.6156 12.9379V11.4374H6.8656V12.9379Z" fill="#ED4C5C"/>
<path d="M5.08435 13.8134C5.14685 13.8447 5.2406 13.9072 5.3656 13.9385V11.3751H5.1156L5.08435 13.8134Z" fill="#C8B100"/>
<path d="M4.58435 12.9069C4.58435 13.2195 4.70935 13.4696 4.83435 13.5946V11.3751H4.58435V12.9069Z" fill="#C8B100"/>
<path d="M5.58435 14.001H5.83435V11.3751H5.58435V14.001Z" fill="#C7B500"/>
<path d="M6.08435 13.9385C6.1781 13.9072 6.3031 13.8447 6.3656 13.8134V11.3751H6.1156L6.08435 13.9385Z" fill="#C8B100"/>
<path d="M4.58435 8.9375H6.83435V11.4384H4.58435V8.9375Z" fill="#ED4C5C"/>
<path d="M6.6156 13.5945C6.7406 13.5007 6.83435 13.2819 6.8656 13.0318V11.4062H6.6156V13.5945Z" fill="#C8B100"/>
<path d="M9.1156 11.4384V12.9389C9.1156 13.5329 8.6156 14.0018 7.9906 14.0018C7.3656 14.0018 6.8656 13.5329 6.8656 12.9389V11.4384H9.1156Z" fill="#ED4C5C"/>
<path d="M8.30314 9.37507C8.39689 9.56263 8.39689 10.0316 8.11564 9.93777C8.17814 9.96903 8.20939 10.1879 8.30314 10.3129C8.45939 10.5005 8.64689 10.3442 8.61564 10.1253C8.55314 9.78146 8.58439 9.56263 8.64689 9.21876C8.64689 9.25002 8.80314 9.25002 8.86564 9.1875C8.83439 9.28128 8.80314 9.40633 8.86564 9.40633C8.80314 9.50011 8.64689 9.65642 8.61564 9.7502C8.58439 9.96903 8.92814 10.3754 8.55314 10.4692C8.30314 10.5317 8.45939 10.7193 8.55314 10.8131C8.55314 10.8131 8.42814 11.2195 8.49064 11.1882C8.24064 11.282 8.30314 11.0632 8.30314 11.0632C8.42814 10.688 8.08439 10.6568 8.11564 10.5943C7.80314 10.563 8.14689 10.8756 7.86564 10.8756C7.80314 10.8756 7.67814 10.9381 7.67814 10.9381C7.33439 10.9069 7.52189 10.5943 7.64689 10.6255C7.74064 10.6568 7.83439 10.8131 7.83439 10.5943C7.83439 10.5943 7.67814 10.3442 8.08439 10.3442C7.92814 10.3442 7.83439 10.2191 7.77189 10.0628C7.70939 10.0941 7.61564 10.2504 7.27189 10.2816C7.27189 10.2816 7.17814 9.93777 7.27189 10.0003C7.39689 10.0628 7.45939 10.0628 7.58439 9.93777C7.52189 9.84398 7.14689 9.71894 7.20939 9.50011C7.20939 9.43759 7.39689 9.34381 7.39689 9.34381C7.36564 9.50011 7.45939 9.65642 7.64689 9.65642C7.89689 9.68768 7.80314 9.5939 7.83439 9.53137C7.86564 9.46885 8.05314 9.56263 7.99064 9.40633C7.99064 9.37507 7.77189 9.34381 7.83439 9.25002C7.95939 9.09372 8.14689 9.21876 8.30314 9.37507Z" fill="#ED4C5C"/>
<path d="M6.8656 13.9419L6.8031 13.7845L6.8656 13.5955L6.9281 13.7845L6.8656 13.9419Z" fill="#ED4C5C"/>
<path d="M5.27185 9.46897V9.62536H5.33435V9.75047H5.1781V10.0632H5.27185V10.7513H5.08435V11.0954H6.3656V10.7513H6.20935V10.0632H6.27185V9.75047H6.1156V9.62536H6.20935V9.46897H5.89685V9.62536H5.95935V9.75047H5.8031V9.37514H5.89685V9.21875H5.5531V9.37514H5.64685V9.75047H5.4906V9.62536H5.5531V9.46897H5.27185Z" fill="#C8B100"/>
<path d="M8.8031 13.3148V11.7509H7.1781V13.3148L7.9281 13.6588H8.02185L8.8031 13.3148ZM7.9281 11.876V12.4077L7.39685 11.876H7.9281ZM7.27185 11.9073L7.89685 12.5329L7.27185 13.1584V11.9073ZM7.33435 13.2835L7.9281 12.6892V13.565L7.33435 13.2835ZM8.02185 13.5337V12.658L8.6156 13.2522L8.02185 13.5337ZM8.6781 13.1584L8.0531 12.5329L8.6781 11.9073V13.1584ZM8.02185 11.876H8.5531L8.02185 12.4077V11.876Z" fill="#C8B100"/>
<path d="M6.1156 11.407C6.1156 10.9378 6.4281 10.5938 6.83435 10.5938C7.2406 10.5938 7.5531 10.9691 7.5531 11.407C7.5531 11.8449 7.2406 12.2202 6.83435 12.2202C6.4281 12.2202 6.1156 11.8762 6.1156 11.407Z" fill="#ED4C5C"/>
<path d="M6.33435 11.4067C6.33435 11.0627 6.5531 10.8125 6.83435 10.8125C7.1156 10.8125 7.33435 11.094 7.33435 11.4067C7.33435 11.7508 7.1156 12.001 6.83435 12.001C6.58435 12.0323 6.33435 11.7508 6.33435 11.4067Z" fill="#005BBF"/>
<path d="M6.6156 11L6.4906 11.3451L6.58435 11.3765L6.52185 11.5019H6.70935L6.64685 11.3765L6.7406 11.3451L6.6156 11Z" fill="#C8B100"/>
<path d="M7.08435 11L6.95935 11.3451L7.0531 11.3765L6.9906 11.5019H7.1781L7.14685 11.3765L7.2406 11.3451L7.08435 11Z" fill="#C8B100"/>
<path d="M6.8656 11.4078L6.70935 11.7529L6.8031 11.7842L6.77185 11.9097H6.9281L6.89685 11.7842L6.9906 11.7529L6.8656 11.4078Z" fill="#C8B100"/>
</g>
<defs>
<clipPath id="clip0_952_2298">
<rect width="20" height="20" fill="white" transform="translate(0.115601)"/>
</clipPath>
</defs>
</svg>
