<svg width="21" height="20" viewBox="0 0 21 20" fill="none" xmlns="http://www.w3.org/2000/svg">
<g clip-path="url(#clip0_952_2274)">
<path d="M0.709351 10.001C0.709351 14.0948 3.33435 17.5635 6.95935 18.8448V1.15729C3.33435 2.43854 0.709351 5.90729 0.709351 10.001Z" fill="#428BC1"/>
<path d="M19.4594 10.001C19.4594 5.90729 16.8656 2.43854 13.2094 1.15729V18.8448C16.8656 17.5635 19.4594 14.0948 19.4594 10.001Z" fill="#ED4C5C"/>
<path d="M6.95935 18.8451C7.9281 19.1889 8.9906 19.3764 10.0844 19.3764C11.1781 19.3764 12.2406 19.1889 13.2094 18.8451V1.15765C12.2406 0.813904 11.2094 0.626404 10.0844 0.626404C8.95935 0.626404 7.9281 0.813904 6.95935 1.15765V18.8451Z" fill="white"/>
</g>
<defs>
<clipPath id="clip0_952_2274">
<rect width="20" height="20" fill="white" transform="translate(0.115601)"/>
</clipPath>
</defs>
</svg>
