<svg width="21" height="20" viewBox="0 0 21 20" fill="none" xmlns="http://www.w3.org/2000/svg">
<g clip-path="url(#clip0_952_2357)">
<path d="M6.9906 18.8467V14.5327L3.77185 16.9085C4.6781 17.7526 5.77185 18.4091 6.9906 18.8467Z" fill="#2A5F9E"/>
<path d="M13.2406 18.8468C14.4594 18.4091 15.5531 17.7526 16.4594 16.9086L13.2406 14.5015V18.8468Z" fill="#2A5F9E"/>
<path d="M1.27185 13.1252C1.3656 13.438 1.4906 13.7195 1.64685 14.0323L2.8656 13.1252H1.27185Z" fill="#2A5F9E"/>
<path d="M17.3656 13.1252L18.5844 14.0323C18.7094 13.7508 18.8344 13.438 18.9594 13.1252H17.3656Z" fill="#2A5F9E"/>
<path d="M7.45935 11.8752H0.928101C1.02185 12.3127 1.14685 12.719 1.27185 13.1252H2.8656L1.64685 14.0315C1.89685 14.5627 2.1781 15.0315 2.52185 15.5002L5.7406 13.1252H6.9906V13.7502L3.33435 16.4377L3.77185 16.8752L6.9906 14.5315V18.844C7.39685 19.0002 7.8031 19.094 8.2406 19.1877V11.8752H7.45935Z" fill="white"/>
<path d="M19.3031 11.8752H11.9906V19.1877C12.4281 19.094 12.8344 18.969 13.2406 18.844V14.5315L16.4594 16.8752C16.8969 16.469 17.2718 16.0315 17.6468 15.5627L14.3031 13.1252H16.4281L18.3343 14.5315C18.4281 14.3752 18.5218 14.1877 18.5843 14.0315L17.3656 13.1252H18.9593C19.0843 12.719 19.2094 12.3127 19.3031 11.8752Z" fill="white"/>
<path d="M2.52185 15.5021C2.77185 15.8459 3.02185 16.1586 3.3031 16.4712L6.9906 13.7827V13.1575H5.7406L2.52185 15.5021Z" fill="#ED4C5C"/>
<path d="M14.3344 13.1252L17.6781 15.5636C17.8031 15.4073 17.8969 15.251 18.0219 15.0947C18.0531 15.0634 18.0531 15.0322 18.0844 15.0322C18.1781 14.8759 18.3031 14.6883 18.3969 14.532L16.4281 13.1252H14.3344Z" fill="#ED4C5C"/>
<path d="M13.2406 1.1575V5.47155L16.4594 3.0957C15.5531 2.25164 14.4594 1.59516 13.2406 1.1575Z" fill="#2A5F9E"/>
<path d="M6.9906 1.1575C5.77185 1.59516 4.6781 2.25164 3.77185 3.0957L6.9906 5.50281V1.1575Z" fill="#2A5F9E"/>
<path d="M18.9594 6.87607C18.8656 6.5633 18.7406 6.2818 18.5844 5.96902L17.3656 6.87607H18.9594Z" fill="#2A5F9E"/>
<path d="M2.8656 6.87607L1.64685 5.96902C1.52185 6.2818 1.39685 6.5633 1.27185 6.87607H2.8656Z" fill="#2A5F9E"/>
<path d="M12.7719 8.12567H19.2719C19.1781 7.68817 19.0531 7.28192 18.9281 6.87567H17.3344L18.5531 5.96942C18.3031 5.43817 18.0219 4.96942 17.6781 4.50067L14.4906 6.87567H13.2406V6.25067L16.8969 3.56317L16.4594 3.12567L13.2406 5.46942V1.15692C12.8344 1.00067 12.4281 0.906921 11.9906 0.813171V8.12567H12.7719Z" fill="white"/>
<path d="M0.928101 8.12567H8.2406V0.813171C7.8031 0.906921 7.39685 1.03192 6.9906 1.15692V5.46942L3.77185 3.12567C3.33435 3.53192 2.95935 3.96942 2.58435 4.43817L5.9281 6.87567H3.8031L1.89685 5.46942C1.8031 5.62567 1.70935 5.81317 1.64685 5.96942L2.8656 6.87567H1.27185C1.14685 7.28192 1.02185 7.68817 0.928101 8.12567Z" fill="white"/>
<path d="M17.7094 4.50193C17.4594 4.15806 17.2094 3.84545 16.9281 3.53284L13.2406 6.2213V6.84652H14.4906L17.7094 4.50193Z" fill="#ED4C5C"/>
<path d="M5.89685 6.8778L2.58435 4.43942C2.45935 4.59573 2.3656 4.75204 2.2406 4.90834C2.20935 4.9396 2.20935 4.97086 2.1781 4.97086C2.08435 5.12717 1.95935 5.31474 1.8656 5.47104L3.77185 6.8778H5.89685Z" fill="#ED4C5C"/>
<path d="M19.3031 8.12665H11.9906V0.814148C11.3969 0.689148 10.7719 0.626648 10.1156 0.626648C9.45935 0.626648 8.83435 0.689148 8.2406 0.814148V8.12665H0.928101C0.803101 8.7204 0.740601 9.3454 0.740601 10.0016C0.740601 10.6579 0.803101 11.2829 0.928101 11.8766H8.2406V19.1891C8.83435 19.3141 9.45935 19.3766 10.1156 19.3766C10.7719 19.3766 11.3969 19.3141 11.9906 19.1891V11.8766H19.3031C19.4281 11.2829 19.4906 10.6579 19.4906 10.0016C19.4906 9.3454 19.4281 8.7204 19.3031 8.12665Z" fill="#ED4C5C"/>
</g>
<defs>
<clipPath id="clip0_952_2357">
<rect width="20" height="20" fill="white" transform="translate(0.115601 0.000244141)"/>
</clipPath>
</defs>
</svg>
