<svg width="21" height="20" viewBox="0 0 21 20" fill="none" xmlns="http://www.w3.org/2000/svg">
<g clip-path="url(#clip0_952_2269)">
<path d="M10.0844 0.625C5.9906 0.625 2.52185 3.25 1.2406 6.875H18.9281C17.6469 3.25 14.1781 0.625 10.0844 0.625Z" fill="#3E4347"/>
<path d="M10.0844 19.375C14.1781 19.375 17.6469 16.7812 18.9281 13.125H1.2406C2.52185 16.7812 5.9906 19.375 10.0844 19.375Z" fill="#FFE62E"/>
<path d="M1.2406 6.875C0.896851 7.84375 0.709351 8.90625 0.709351 10C0.709351 11.0938 0.896851 12.1562 1.2406 13.125H18.9281C19.2719 12.1562 19.4594 11.0938 19.4594 10C19.4594 8.90625 19.2719 7.84375 18.9281 6.875H1.2406Z" fill="#ED4C5C"/>
</g>
<defs>
<clipPath id="clip0_952_2269">
<rect width="20" height="20" fill="white" transform="translate(0.115601)"/>
</clipPath>
</defs>
</svg>
