<svg width="32" height="32" viewBox="0 0 32 32" fill="none" xmlns="http://www.w3.org/2000/svg">
<path d="M28 19.3333C26.6983 19.3333 24 20.0582 22.6322 20.4511C22.4507 18.5381 19.9994 17.8609 17.4662 17.3463C16.3099 17.1119 15.4493 16.6973 14.6173 16.2955C13.5912 15.8007 12.6224 15.3333 11.3334 15.3333C9.85725 15.3333 8.512 15.6352 7.75287 15.8441C7.55219 15.1458 6.98287 14.583 6.22656 14.4322L0.796875 13.3464C0.602875 13.3073 0.398438 13.3581 0.2435 13.4844C0.089875 13.6113 0 13.8001 0 14V24.6667C0 25.0352 0.298187 25.3334 0.666687 25.3334H4.84375C5.667 25.3334 6.36856 24.8097 6.67019 24.0745C8.16406 24.7866 15.0676 28 18 28C20.5859 28 25.9102 25.3828 29.4323 23.6511C30.3503 23.1999 31.1094 22.8262 31.6016 22.6107C31.8438 22.5039 32 22.2643 32 22C32 20.4297 30.3555 19.3333 28 19.3333ZM6.49481 16.4876L5.50394 23.4278C5.45706 23.7539 5.17319 24 4.84375 24H1.33331V14.8131L5.96613 15.7396C6.3125 15.8093 6.54556 16.1374 6.49481 16.4876ZM28.8438 22.4544C25.6393 24.0299 20.2761 26.6667 18 26.6667C15.5755 26.6667 9.207 23.8275 6.95831 22.7338C6.95581 22.7325 6.953 22.7329 6.9505 22.7318L7.73494 17.2378C8.22069 17.0859 9.70481 16.6667 11.3333 16.6667C12.3177 16.6667 13.0768 17.0333 14.0391 17.4968C14.9024 17.9134 15.8815 18.3854 17.2005 18.6536C20.0976 19.2409 21.3333 19.8431 21.3333 20.6666C21.3333 20.8294 21.2838 20.9296 21.1575 21.0241C20.7343 21.3411 19.0781 21.8737 12.8567 20.0273C12.5012 19.9244 12.1328 20.1243 12.0273 20.4772C11.9231 20.8301 12.1236 21.2011 12.4765 21.3059C15.5481 22.2161 17.8958 22.6699 19.5598 22.6699C20.6444 22.6699 21.44 22.4772 21.9544 22.0924C21.9986 22.0593 22.0311 22.0189 22.0713 21.9833C22.1132 21.9787 22.1545 21.9836 22.1966 21.9706C23.375 21.6081 26.7149 20.6667 28 20.6667C29.0872 20.6667 30.2318 20.9968 30.5677 21.6172C30.1029 21.8359 29.5156 22.125 28.8438 22.4544Z" fill="white"/>
<path d="M20.6667 16C22.4753 16 24.0969 14.9346 24.8616 13.3136C27.3424 13.2089 29.3333 11.1728 29.3333 8.66663C29.3333 6.09369 27.2396 3.99994 24.6666 3.99994C22.8035 3.99994 21.2041 5.10519 20.4565 6.68788C17.9828 6.80044 16 8.83238 16 11.3333C16 13.9063 18.0937 16 20.6667 16ZM24.6667 5.33331C26.5052 5.33331 28 6.82875 28 8.66663C28 10.5045 26.5052 12 24.6667 12C22.8282 12 21.3334 10.5046 21.3334 8.66669C21.3334 6.82881 22.8281 5.33331 24.6667 5.33331ZM20.0603 8.06988C20.0347 8.26738 20 8.46231 20 8.66663C20 9.00613 20.0409 9.3355 20.1101 9.65456C20.0464 9.75681 20 9.87063 20 10V12.6667C20 13.0352 20.2982 13.3334 20.6667 13.3334C21.0352 13.3334 21.3334 13.0352 21.3334 12.6667V11.9223C21.9026 12.5051 22.6271 12.9243 23.4341 13.1471C22.8295 14.0757 21.7992 14.6667 20.6667 14.6667C18.8281 14.6667 17.3334 13.1713 17.3334 11.3334C17.3333 9.71394 18.496 8.3645 20.0603 8.06988Z" fill="white"/>
<path d="M24.6667 10.6667C25.0352 10.6667 25.3334 10.3685 25.3334 10V7.33331C25.3334 6.96481 25.0352 6.66663 24.6667 6.66663C24.2982 6.66663 24 6.96488 24 7.33331V10C24 10.3685 24.2982 10.6667 24.6667 10.6667Z" fill="white"/>
</svg>
