<svg width="96" height="96" viewBox="0 0 96 96" fill="none" xmlns="http://www.w3.org/2000/svg">
<rect width="96" height="96" rx="15" fill="#2ED886"/>
<g clip-path="url(#clip0_651_734)">
<path d="M61.3333 38.6667H54.6667V37.3333C54.6667 35.8626 53.4708 34.6666 52 34.6666H44C42.5293 34.6666 41.3333 35.8626 41.3333 37.3333V38.6666H34.6667C33.1959 38.6667 32 39.8626 32 41.3333V58.6666C32 60.1373 33.1959 61.3333 34.6667 61.3333H61.3334C62.8041 61.3333 64.0001 60.1374 64.0001 58.6666V41.3333C64 39.8626 62.8041 38.6667 61.3333 38.6667ZM42.6667 37.3333C42.6667 36.5983 43.265 36 44 36H52C52.735 36 53.3333 36.5983 53.3333 37.3333V38.6666H42.6667V37.3333ZM62.6667 58.6667C62.6667 59.4017 62.0684 60 61.3334 60H34.6667C33.9317 60 33.3334 59.4017 33.3334 58.6667V48.9625C33.7272 49.1921 34.1788 49.3334 34.6667 49.3334H45.3334V51.3334C45.3334 51.7019 45.6316 52.0001 46.0001 52.0001H50.0001C50.3686 52.0001 50.6667 51.7019 50.6667 51.3334V49.3334H61.3334C61.8213 49.3334 62.273 49.1922 62.6667 48.9625V58.6667H62.6667ZM46.6667 50.6667V48H49.3334V50.6667H46.6667ZM62.6667 46.6667C62.6667 47.4017 62.0684 48 61.3334 48H50.6667V47.3333C50.6667 46.9648 50.3685 46.6666 50 46.6666H46C45.6315 46.6666 45.3333 46.9648 45.3333 47.3333V48H34.6667C33.9317 48 33.3334 47.4017 33.3334 46.6667V41.3334C33.3334 40.5984 33.9317 40.0001 34.6667 40.0001H61.3334C62.0684 40.0001 62.6667 40.5984 62.6667 41.3334V46.6667Z" fill="white"/>
</g>
<defs>
<clipPath id="clip0_651_734">
<rect width="32" height="32" fill="white" transform="translate(32 32)"/>
</clipPath>
</defs>
</svg>
