<svg width="90" height="90" viewBox="0 0 90 90" fill="none" xmlns="http://www.w3.org/2000/svg">
<circle cx="45" cy="45" r="45" fill="#203045"/>
<path d="M45.0001 35.783C35.1371 35.783 27.1121 43.807 27.1121 53.671C27.1121 63.535 35.1371 71.558 45.0001 71.558C54.8631 71.558 62.8881 63.534 62.8881 53.67C62.8881 43.806 54.8631 35.783 45.0001 35.783ZM45.0001 69.558C40.1001 69.558 35.7141 67.326 32.7971 63.828C33.0281 63.537 33.2611 63.248 33.4901 62.956L33.6001 62.815C34.0231 62.274 35.5581 60.539 37.5351 60.887C39.5931 61.25 41.2431 60.23 42.0531 58.083C42.3931 57.183 42.0981 56.172 41.3371 55.625C40.5771 55.079 40.2311 53.744 40.2311 52.735V48.797C40.2311 47.76 40.5271 46.983 41.1361 46.419C42.4791 45.176 44.8941 45.349 44.9171 45.351C44.9701 45.356 45.0271 45.356 45.0801 45.351C45.1051 45.351 47.5221 45.177 48.8641 46.419C49.4731 46.982 49.7691 47.76 49.7691 48.797V52.735C49.7691 53.744 49.4231 55.078 48.6631 55.625C47.9021 56.172 47.6071 57.183 47.9471 58.083C48.7581 60.23 50.4091 61.25 52.4651 60.887C54.4421 60.536 55.9771 62.274 56.4001 62.815L56.5101 62.956C56.7391 63.248 56.9721 63.537 57.2031 63.828C54.2861 67.326 49.9001 69.558 45.0001 69.558ZM58.4171 62.141C58.3071 62.001 58.1941 61.863 58.0841 61.723L57.9731 61.582C56.3791 59.546 54.1871 58.553 52.1151 58.918C51.6721 58.997 50.5061 59.202 49.8171 57.378C49.7961 57.32 49.8161 57.259 49.8301 57.25C51.2591 56.222 51.7681 54.245 51.7681 52.736V48.798C51.7681 47.191 51.2441 45.894 50.2111 44.943C48.3691 43.249 45.5311 43.321 44.9981 43.354C44.4651 43.32 41.6261 43.249 39.7851 44.943C38.7521 45.894 38.2281 47.191 38.2281 48.798V52.736C38.2281 54.244 38.7371 56.222 40.1661 57.249C40.1801 57.259 40.2001 57.32 40.1791 57.378C39.4901 59.203 38.3231 58.997 37.8811 58.918C35.8091 58.552 33.6181 59.547 32.0231 61.582L31.9131 61.723C31.8031 61.863 31.6901 62.001 31.5801 62.141C30.0241 59.686 29.1101 56.786 29.1101 53.67C29.1101 44.909 36.2371 37.782 44.9981 37.782C53.7591 37.782 60.8881 44.91 60.8881 53.67C60.8881 56.786 59.9731 59.686 58.4171 62.141Z" fill="#0494FC"/>
<path d="M37.427 26.529L40.328 28.637L39.22 32.048C38.965 32.833 39.232 33.654 39.899 34.139C40.233 34.382 40.616 34.503 40.999 34.503C41.382 34.503 41.765 34.382 42.099 34.139L45 32.031L47.901 34.139C48.569 34.624 49.432 34.624 50.1 34.139C50.767 33.654 51.034 32.833 50.779 32.048L49.671 28.637L52.572 26.529C53.24 26.044 53.507 25.223 53.251 24.438C52.996 23.653 52.298 23.146 51.472 23.146H47.886L46.778 19.735C46.524 18.949 45.826 18.442 45 18.442C44.174 18.442 43.476 18.949 43.221 19.734L42.113 23.145H38.527C37.701 23.145 37.003 23.652 36.748 24.437C36.493 25.223 36.759 26.043 37.427 26.529ZM42.207 25.145C43.02 25.145 43.735 24.625 43.986 23.853L45 20.732L46.014 23.852C46.264 24.625 46.979 25.144 47.793 25.144H51.075L48.419 27.074C47.762 27.552 47.489 28.392 47.74 29.165L48.754 32.286L46.1 30.357C45.442 29.879 44.559 29.879 43.901 30.357L41.246 32.286L42.26 29.165C42.511 28.393 42.239 27.552 41.581 27.074L38.926 25.145H42.207Z" fill="#0494FC"/>
<path d="M31.415 38.182C32.028 38.628 32.854 38.63 33.471 38.182C34.086 37.735 34.341 36.949 34.106 36.226L33.184 33.387L35.599 31.633C36.214 31.186 36.469 30.4 36.234 29.677C35.999 28.954 35.33 28.469 34.57 28.469H31.585L30.663 25.63C30.428 24.907 29.76 24.422 28.999 24.422C28.238 24.422 27.57 24.908 27.335 25.63L26.413 28.469H23.428C22.668 28.469 22 28.955 21.764 29.677C21.529 30.4 21.785 31.186 22.399 31.633L24.814 33.387L23.892 36.226C23.657 36.949 23.912 37.735 24.527 38.182C24.835 38.406 25.195 38.517 25.555 38.517C25.915 38.517 26.275 38.405 26.583 38.182L29 36.428L31.415 38.182ZM27.972 34.703L26.035 36.111L26.774 33.835C27.01 33.112 26.754 32.325 26.139 31.878L24.201 30.47H26.596C27.356 30.47 28.025 29.984 28.26 29.262L29 26.983L29.74 29.26C29.974 29.983 30.643 30.469 31.404 30.469H33.799L31.861 31.877C31.246 32.324 30.99 33.111 31.226 33.833L31.966 36.11L30.028 34.702C29.413 34.257 28.586 34.256 27.972 34.703Z" fill="#0494FC"/>
<path d="M68.234 29.678C67.999 28.955 67.33 28.47 66.57 28.47H63.585L62.663 25.631C62.428 24.908 61.76 24.423 60.999 24.423C60.238 24.423 59.57 24.909 59.335 25.631L58.413 28.47H55.428C54.668 28.47 54 28.956 53.764 29.678C53.529 30.401 53.785 31.187 54.399 31.634L56.814 33.388L55.892 36.227C55.657 36.95 55.912 37.736 56.527 38.183C56.835 38.407 57.195 38.518 57.555 38.518C57.915 38.518 58.275 38.406 58.583 38.183L61 36.428L63.415 38.182C64.028 38.628 64.854 38.63 65.471 38.182C66.086 37.735 66.341 36.949 66.106 36.226L65.184 33.387L67.599 31.633C68.214 31.187 68.469 30.4 68.234 29.678ZM63.861 31.877C63.246 32.324 62.99 33.111 63.226 33.833L63.966 36.11L62.028 34.702C61.413 34.257 60.587 34.256 59.972 34.702L58.035 36.11L58.774 33.834C59.01 33.111 58.754 32.324 58.139 31.877L56.201 30.469H58.596C59.356 30.469 60.025 29.983 60.26 29.261L61 26.983L61.74 29.26C61.974 29.983 62.643 30.469 63.404 30.469H65.799L63.861 31.877Z" fill="#0494FC"/>
</svg>
