<svg width="21" height="20" viewBox="0 0 21 20" fill="none" xmlns="http://www.w3.org/2000/svg">
<g clip-path="url(#clip0_952_2263)">
<path d="M0.646851 10C0.646851 14.0938 3.27185 17.5625 6.89685 18.8438V1.15625C3.27185 2.4375 0.646851 5.90625 0.646851 10Z" fill="#75A843"/>
<path d="M19.3969 10C19.3969 5.90625 16.7719 2.4375 13.1469 1.15625V18.8438C16.8031 17.5625 19.3969 14.0938 19.3969 10Z" fill="#ED4C5C"/>
<path d="M6.89685 18.8438C7.8656 19.1875 8.9281 19.375 10.0219 19.375C11.1156 19.375 12.1781 19.1875 13.1469 18.8438V1.15625C12.1781 0.8125 11.1156 0.625 10.0219 0.625C8.9281 0.625 7.8656 0.8125 6.89685 1.15625V18.8438Z" fill="white"/>
</g>
<defs>
<clipPath id="clip0_952_2263">
<rect width="20" height="20" fill="white" transform="translate(0.115601)"/>
</clipPath>
</defs>
</svg>
