<svg width="42" height="48" viewBox="0 0 42 48" fill="none" xmlns="http://www.w3.org/2000/svg">
<path d="M20.9998 34.1194C18.1778 34.1194 15.4174 33.1405 13.2269 31.3627L3.37718 23.369C-0.611135 20.2478 -0.610572 13.8519 3.37718 10.7311L13.2269 2.73745C17.5959 -0.912576 24.4037 -0.912389 28.7726 2.73745L38.6224 10.7311C41.1394 12.7739 42.2039 16.1142 41.3344 19.2409C41.0568 20.2389 40.0233 20.8232 39.0246 20.5455C38.0265 20.2679 37.4425 19.2338 37.7201 18.2357C38.1894 16.548 37.6157 14.7457 36.2582 13.6441L26.4085 5.6503C23.2745 3.10688 18.725 3.10688 15.591 5.6503L5.74128 13.6441C3.59092 15.327 3.5912 18.7735 5.74128 20.4562L15.591 28.4499C18.7196 30.9889 23.2589 30.9934 26.3925 28.4628L28.0378 27.0634C28.8268 26.3923 30.0106 26.4876 30.6818 27.2769C31.353 28.066 31.2575 29.2498 30.4684 29.9209L28.8058 31.3351C28.7948 31.3444 28.7838 31.3536 28.7726 31.3627C26.5822 33.1405 23.8217 34.1194 20.9998 34.1194ZM28.7726 45.2433L38.6224 37.2496C42.6107 34.1283 42.6101 27.7325 38.6224 24.6117L28.7726 16.618C24.4036 12.968 17.5958 12.9682 13.2269 16.618L11.8383 17.757C9.97673 19.4117 12.2324 22.1589 14.2172 20.6576L15.5941 19.5284C18.7282 16.9877 23.2756 16.9885 26.4085 19.531L36.2582 27.5247C38.4086 29.2076 38.4083 32.6541 36.2582 34.3367L26.4085 42.3304C23.2745 44.8738 18.725 44.8738 15.591 42.3304L5.74128 34.3367C4.49766 33.3274 3.90286 31.7191 4.18901 30.1396C4.37367 29.1203 3.697 28.1442 2.67771 27.9595C1.65899 27.7752 0.682383 28.4515 0.497621 29.4708C-0.032466 32.3971 1.07085 35.3778 3.37718 37.2496L13.2269 45.2433C15.4173 47.0209 18.1778 48 20.9998 48C23.8217 48 26.5822 47.021 28.7726 45.2433Z" fill="white"/>
</svg>
