<svg width="20" height="20" viewBox="0 0 20 20" fill="none" xmlns="http://www.w3.org/2000/svg">
<path d="M10 0C4.48645 0 0 4.48566 0 10C0 15.5143 4.48645 20 10 20C15.5143 20 20 15.5143 20 10C20 4.48566 15.5136 0 10 0ZM10 18.4508C5.34004 18.4508 1.54918 14.66 1.54918 10C1.54918 5.34004 5.34004 1.54918 10 1.54918C14.66 1.54918 18.4508 5.34004 18.4508 10C18.4508 14.66 14.66 18.4508 10 18.4508Z" fill="#D03737"/>
<path d="M13.873 9.15576H6.12703C5.69945 9.15576 5.35242 9.50279 5.35242 9.93037C5.35242 10.358 5.69945 10.705 6.12703 10.705H13.873C14.3005 10.705 14.6476 10.358 14.6476 9.93037C14.6476 9.50279 14.3005 9.15576 13.873 9.15576Z" fill="#D03737"/>
</svg>
