<svg width="32" height="32" viewBox="0 0 32 32" fill="none" xmlns="http://www.w3.org/2000/svg">
<path d="M25.3327 21.1309C25.309 15.5319 24.274 11.4306 20.0674 9.948C20.2471 9.19669 20.7647 8.01075 21.2376 6.93425C21.9726 5.25912 22.6667 3.67706 22.6667 2.66669C22.6667 1.43619 21.9681 0 20 0C18.5364 0 18.1992 0.794937 18.0189 1.222C18.0013 1.263 17.9798 1.31381 17.9804 1.33269C17.9082 1.33006 17.8632 1.30013 17.6439 1.05144C17.2734 0.632812 16.7142 0 15.3333 0C13.5442 0 12.5768 1.77737 12.2064 2.6595C11.5749 2.67644 10.5215 2.80012 9.88281 3.39387C9.52344 3.72787 9.33331 4.16794 9.33331 4.66669C9.33331 5.55013 10.0058 6.62438 10.7181 7.76175C11.1922 8.51894 11.7012 9.34563 11.8976 9.961C7.72062 11.454 6.69088 15.5477 6.66725 21.1309C6.13281 21.9453 4 25.3626 4 28C4 31.4805 11.5182 32 16 32C20.4818 32 28 31.4804 28 28C28 25.3626 25.8672 21.9453 25.3327 21.1309ZM11.8483 7.05406C11.3216 6.21356 10.6667 5.16669 10.6667 4.66669C10.6667 4.53844 10.7025 4.4525 10.7898 4.37113C11.1667 4.02019 12.1876 3.9675 12.6192 3.99806C12.9421 4.03194 13.2143 3.82425 13.3048 3.52737C13.3113 3.50525 14.0144 1.33337 15.3334 1.33337C16.1133 1.33337 16.3477 1.59837 16.6446 1.93431C16.918 2.24356 17.2917 2.66675 18.0001 2.66675C18.8549 2.66675 19.1192 2.04238 19.2462 1.74225C19.3725 1.44475 19.4194 1.33337 20.0001 1.33337C21.1023 1.33337 21.3334 2.05862 21.3334 2.66669C21.3334 3.39719 20.6336 4.99156 20.0164 6.39844C19.4771 7.62725 18.9949 8.72963 18.7812 9.59219C17.9544 9.42606 17.0366 9.33331 16.0001 9.33331C14.9504 9.33331 14.0236 9.42919 13.1888 9.59937C12.9462 8.81206 12.4104 7.95187 11.8483 7.05406ZM16 30.6667C9.71938 30.6667 5.33331 29.5703 5.33331 28C5.33331 25.4636 7.85806 21.7474 7.88344 21.7103C7.95894 21.599 8 21.4675 8 21.3334C8 13.4578 10.0938 10.6667 16 10.6667C21.9062 10.6667 24 13.4577 24 21.3334C24 21.4681 24.041 21.5996 24.1166 21.7103C24.1426 21.7474 26.6667 25.4584 26.6667 28C26.6667 29.5703 22.2806 30.6667 16 30.6667Z" fill="white"/>
<path d="M16 18.6667H17.3333C17.7018 18.6667 18 18.3685 18 18C18 17.6315 17.7018 17.3333 17.3333 17.3333H16.6666C16.6666 16.9648 16.3684 16.6666 15.9999 16.6666C15.6314 16.6666 15.3333 16.9648 15.3333 17.3333V17.4561C14.559 17.7323 14 18.4653 14 19.3333C14 20.4362 14.8971 21.3333 16 21.3333C16.3678 21.3333 16.6667 21.6321 16.6667 22C16.6667 22.3678 16.3679 22.6667 16 22.6667H14.6667C14.2982 22.6667 14 22.9649 14 23.3334C14 23.7019 14.2982 24.0001 14.6667 24.0001H15.3334C15.3334 24.3686 15.6316 24.6668 16.0001 24.6668C16.3686 24.6668 16.6667 24.3686 16.6667 24.0001V23.8773C17.441 23.6011 18 22.868 18 22C18 20.8971 17.1029 20 16 20C15.6322 20 15.3333 19.7012 15.3333 19.3333C15.3333 18.9655 15.6322 18.6667 16 18.6667Z" fill="white"/>
</svg>
