<svg width="32" height="32" viewBox="0 0 32 32" fill="none" xmlns="http://www.w3.org/2000/svg">
<g clip-path="url(#clip0_651_675)">
<path d="M10 10.6667H6C5.6315 10.6667 5.33331 10.9649 5.33331 11.3334V16.6667C5.33331 17.0352 5.6315 17.3334 6 17.3334H10C10.3685 17.3334 10.6667 17.0352 10.6667 16.6667V11.3334C10.6667 10.9649 10.3685 10.6667 10 10.6667ZM9.33331 16H6.66662V12H9.33331V16Z" fill="white"/>
<path d="M18 6.66669H14C13.6315 6.66669 13.3333 6.96487 13.3333 7.33337V16.6667C13.3333 17.0352 13.6315 17.3334 14 17.3334H18C18.3685 17.3334 18.6667 17.0352 18.6667 16.6667V7.33331C18.6667 6.96487 18.3685 6.66669 18 6.66669ZM17.3333 16H14.6666V8H17.3333V16Z" fill="white"/>
<path d="M26 4H22C21.6315 4 21.3333 4.29819 21.3333 4.66669V16.6667C21.3333 17.0352 21.6315 17.3334 22 17.3334H26C26.3685 17.3334 26.6667 17.0352 26.6667 16.6667V4.66669C26.6667 4.29819 26.3685 4 26 4ZM25.3333 16H22.6666V5.33331H25.3333V16Z" fill="white"/>
<path d="M29.3333 1.33331H2.66669C1.19594 1.33331 0 2.52931 0 4V22.6667C0 24.1374 1.19594 25.3334 2.66669 25.3334H12.0018C11.9731 26.3991 11.7688 28.1025 11.0085 28.9024C10.7292 29.1966 10.4083 29.3334 10.0001 29.3334C9.63156 29.3334 9.33337 29.6316 9.33337 30.0001C9.33337 30.3686 9.63156 30.6667 10.0001 30.6667H22.0001C22.3686 30.6667 22.6667 30.3686 22.6667 30.0001C22.6667 29.6316 22.3686 29.3334 22.0001 29.3334C21.5919 29.3334 21.2709 29.1966 20.9916 28.9024C20.2313 28.1025 20.027 26.3991 19.9983 25.3334H29.3334C30.8041 25.3334 32.0001 24.1374 32.0001 22.6667V4C32 2.52931 30.8041 1.33331 29.3333 1.33331ZM12.3581 29.3333C13.1631 28.099 13.3189 26.3216 13.339 25.3333H18.6609C18.6811 26.3216 18.8368 28.099 19.6419 29.3333H12.3581ZM30.6667 22.6667C30.6667 23.4017 30.0684 24 29.3334 24H2.66669C1.93169 24 1.33337 23.4017 1.33337 22.6667V20H30.6667V22.6667ZM30.6667 18.6667H1.33331V4C1.33331 3.265 1.93163 2.66669 2.66663 2.66669H29.3333C30.0683 2.66669 30.6666 3.265 30.6666 4V18.6667H30.6667Z" fill="white"/>
<path d="M16 23.3333C16.7364 23.3333 17.3333 22.7364 17.3333 22C17.3333 21.2636 16.7364 20.6667 16 20.6667C15.2636 20.6667 14.6667 21.2636 14.6667 22C14.6667 22.7364 15.2636 23.3333 16 23.3333Z" fill="white"/>
</g>
<defs>
<clipPath id="clip0_651_675">
<rect width="32" height="32" fill="white"/>
</clipPath>
</defs>
</svg>
