<svg width="20" height="20" viewBox="0 0 20 20" fill="none" xmlns="http://www.w3.org/2000/svg">
<path d="M10 0C4.48566 0 0 4.48566 0 10C0 15.5143 4.48566 20 10 20C15.5143 20 20 15.5136 20 10C20 4.48645 15.5143 0 10 0ZM10 18.4508C5.34082 18.4508 1.54918 14.66 1.54918 10C1.54918 5.34004 5.34082 1.54918 10 1.54918C14.66 1.54918 18.4508 5.34004 18.4508 10C18.4508 14.66 14.6592 18.4508 10 18.4508Z" fill="#2ED886"/>
<path d="M14.588 6.52199C14.2727 6.23539 13.7824 6.25785 13.4942 6.57465L8.7692 11.7776L6.48647 9.45695C6.18514 9.15176 5.69561 9.14711 5.39119 9.44765C5.086 9.74742 5.08135 10.2377 5.3819 10.5429L8.23936 13.4477C8.38577 13.5964 8.58405 13.6793 8.79163 13.6793C8.79627 13.6793 8.8017 13.6793 8.80635 13.68C9.02014 13.6754 9.22155 13.584 9.36483 13.426L14.6406 7.61652C14.928 7.2989 14.9048 6.80937 14.588 6.52199Z" fill="#2ED886"/>
</svg>
