<svg width="82" height="82" viewBox="0 0 82 82" fill="none" xmlns="http://www.w3.org/2000/svg">
<g filter="url(#filter0_d_651_788)">
<circle cx="41" cy="41" r="34.5" stroke="#0494FC" stroke-width="3"/>
</g>
<g filter="url(#filter1_d_651_788)">
<path d="M42.864 52C42.6507 52 42.4693 51.9253 42.32 51.776C42.1707 51.6267 42.096 51.4453 42.096 51.232V34.656L37.232 38.4C37.104 38.5067 36.9547 38.56 36.784 38.56C36.528 38.56 36.3147 38.4427 36.144 38.208L34.8 36.48C34.6933 36.3093 34.64 36.1493 34.64 36C34.64 35.744 34.7573 35.5307 34.992 35.36L42.16 29.824C42.352 29.6747 42.6187 29.6 42.96 29.6H45.776C46.0107 29.6 46.192 29.6747 46.32 29.824C46.4693 29.952 46.544 30.1333 46.544 30.368V51.232C46.544 51.4453 46.4693 51.6267 46.32 51.776C46.192 51.9253 46.0107 52 45.776 52H42.864Z" fill="#0494FC"/>
</g>
<defs>
<filter id="filter0_d_651_788" x="0" y="0" width="82" height="82" filterUnits="userSpaceOnUse" color-interpolation-filters="sRGB">
<feFlood flood-opacity="0" result="BackgroundImageFix"/>
<feColorMatrix in="SourceAlpha" type="matrix" values="0 0 0 0 0 0 0 0 0 0 0 0 0 0 0 0 0 0 127 0" result="hardAlpha"/>
<feMorphology radius="1" operator="dilate" in="SourceAlpha" result="effect1_dropShadow_651_788"/>
<feOffset/>
<feGaussianBlur stdDeviation="2"/>
<feColorMatrix type="matrix" values="0 0 0 0 0.0156863 0 0 0 0 0.580392 0 0 0 0 0.988235 0 0 0 1 0"/>
<feBlend mode="normal" in2="BackgroundImageFix" result="effect1_dropShadow_651_788"/>
<feBlend mode="normal" in="SourceGraphic" in2="effect1_dropShadow_651_788" result="shape"/>
</filter>
<filter id="filter1_d_651_788" x="30.64" y="25.6" width="19.9039" height="30.4" filterUnits="userSpaceOnUse" color-interpolation-filters="sRGB">
<feFlood flood-opacity="0" result="BackgroundImageFix"/>
<feColorMatrix in="SourceAlpha" type="matrix" values="0 0 0 0 0 0 0 0 0 0 0 0 0 0 0 0 0 0 127 0" result="hardAlpha"/>
<feOffset/>
<feGaussianBlur stdDeviation="2"/>
<feColorMatrix type="matrix" values="0 0 0 0 0.0156863 0 0 0 0 0.580392 0 0 0 0 0.988235 0 0 0 1 0"/>
<feBlend mode="normal" in2="BackgroundImageFix" result="effect1_dropShadow_651_788"/>
<feBlend mode="normal" in="SourceGraphic" in2="effect1_dropShadow_651_788" result="shape"/>
</filter>
</defs>
</svg>
