<svg width="90" height="90" viewBox="0 0 90 90" fill="none" xmlns="http://www.w3.org/2000/svg">
<circle cx="45" cy="45" r="45" fill="#203045"/>
<path d="M69.9892 19C66.8942 19 63.2942 19.672 59.5292 20.932C59.5262 20.933 59.5242 20.932 59.5212 20.933C59.5192 20.934 59.5182 20.935 59.5162 20.936C59.2112 21.038 58.9062 21.137 58.5992 21.247C58.5692 21.258 58.5382 21.271 58.5082 21.286C57.7482 21.56 57.0012 21.857 56.2652 22.167C56.2612 22.168 56.2572 22.171 56.2532 22.172C51.6892 24.094 47.6362 26.655 44.9032 29.388L39.5792 34.712H35.1372C32.9992 34.712 30.9892 35.545 29.4762 37.057L24.1432 42.39C23.8542 42.679 23.7702 43.115 23.9312 43.491C24.0882 43.859 24.4512 44.097 24.8502 44.097C24.8582 44.097 24.8662 44.097 24.8742 44.097L33.3702 43.892C32.9632 46.119 33.2092 48.433 34.1622 50.516C31.2702 53.485 29.0462 57.401 30.8582 59.213C31.3122 59.668 31.8992 59.868 32.5712 59.868C34.5792 59.868 37.3382 58.069 39.5642 55.898C41.0052 56.555 42.5502 56.896 44.1082 56.896C44.8012 56.896 45.4942 56.825 46.1802 56.7L45.9752 65.198C45.9652 65.607 46.2052 65.98 46.5812 66.141C46.7082 66.195 46.8422 66.222 46.9752 66.222C47.2352 66.222 47.4912 66.12 47.6822 65.929L53.0152 60.596C54.5272 59.083 55.3602 57.073 55.3602 54.935V50.49L60.6442 45.2C63.3962 42.456 65.9652 38.377 67.8852 33.781C67.8852 33.78 67.8862 33.78 67.8862 33.779C68.2072 33.011 68.5142 32.233 68.7962 31.44C68.9012 31.145 68.9952 30.853 69.0932 30.56C69.0972 30.552 69.1032 30.545 69.1072 30.537C69.1122 30.525 69.1092 30.512 69.1142 30.499C70.3722 26.719 71.0332 23.104 71.0172 19.995C71.0122 19.444 70.5392 19 69.9892 19ZM33.9282 41.878L27.3242 42.037L30.8892 38.471C32.0242 37.337 33.5322 36.712 35.1362 36.712H37.5782L36.6442 37.646C35.4162 38.876 34.5092 40.329 33.9282 41.878ZM37.7022 47.598C37.0482 48.015 36.3832 48.504 35.7242 49.062C35.1062 47.379 35.0162 45.548 35.4242 43.798C36.0142 45.235 36.9292 46.594 37.7022 47.598ZM38.3582 54.286C35.2082 57.437 32.6042 58.13 32.2722 57.799C31.9422 57.468 32.6362 54.862 35.7862 51.713C37.1772 50.322 38.6672 49.217 39.9802 48.602C40.7542 48.24 41.2842 48.142 41.5842 48.142C41.7452 48.142 41.8402 48.17 41.8712 48.201C41.9592 48.289 42.0272 48.901 41.4702 50.092C40.8542 51.406 39.7482 52.895 38.3582 54.286ZM41.0092 54.347C41.5682 53.687 42.0592 53.02 42.4762 52.364C43.4972 53.147 44.8662 54.054 46.3152 54.637C44.5542 55.055 42.7062 54.968 41.0092 54.347ZM53.3592 54.934C53.3592 56.538 52.7342 58.046 51.6002 59.181L48.0352 62.747L48.1952 56.137C49.7462 55.556 51.2012 54.652 52.4312 53.422L53.3602 52.492V54.934H53.3592ZM59.2292 43.785L51.0162 52.007C50.6542 52.369 50.2682 52.696 49.8652 52.992C49.8632 52.993 49.8602 52.993 49.8582 52.995C48.6642 53.685 46.1312 52.704 43.4342 50.567C44.3032 48.477 43.8542 47.355 43.2842 46.786C42.7162 46.216 41.5942 45.765 39.5002 46.638C37.4832 44.102 36.4732 41.664 36.9482 40.391C37.2762 39.923 37.6442 39.475 38.0592 39.06L40.6992 36.42C40.7002 36.419 40.7002 36.419 40.7012 36.418L46.3172 30.802C48.6182 28.501 51.9482 26.321 55.7442 24.58C56.1452 26.541 57.4222 28.721 59.3782 30.675C61.3342 32.628 63.5152 33.9 65.4752 34.298C63.7352 38.123 61.5472 41.473 59.2292 43.785ZM66.2822 32.413C64.6552 32.225 62.5822 31.047 60.7922 29.26C59.0012 27.472 57.8192 25.393 57.6292 23.77C58.1152 23.574 58.6052 23.383 59.1012 23.203C59.1002 23.217 59.1042 23.23 59.1032 23.243C59.0542 24.252 59.8912 26.229 61.8532 28.191C63.8262 30.164 65.8132 30.995 66.8262 30.94C66.8322 30.94 66.8392 30.941 66.8452 30.941C66.6662 31.437 66.4772 31.927 66.2822 32.413ZM67.4852 28.981C67.2292 28.95 66.9712 28.928 66.7112 28.943C66.3812 28.985 64.9372 28.445 63.2622 26.77C61.6052 25.114 61.0992 23.674 61.1012 23.352C61.1172 23.084 61.0972 22.818 61.0642 22.553C63.8692 21.685 66.6052 21.144 68.9952 21.026C68.8862 23.414 68.3512 26.162 67.4852 28.981Z" fill="#0494FC"/>
<path d="M51.7553 31.641C49.9423 31.641 48.2383 32.347 46.9573 33.628C45.6753 34.909 44.9703 36.613 44.9703 38.426C44.9703 40.239 45.6753 41.943 46.9573 43.224C48.2383 44.506 49.9423 45.211 51.7553 45.211C53.5683 45.211 55.2723 44.505 56.5533 43.224C57.8353 41.942 58.5403 40.239 58.5403 38.426C58.5403 36.613 57.8353 34.909 56.5533 33.628C55.2723 32.347 53.5683 31.641 51.7553 31.641ZM55.1393 41.811C54.2363 42.715 53.0343 43.212 51.7553 43.212C50.4763 43.212 49.2753 42.714 48.3713 41.811C47.4673 40.907 46.9703 39.706 46.9703 38.427C46.9703 37.149 47.4673 35.947 48.3713 35.043C49.2743 34.139 50.4763 33.642 51.7553 33.642C53.0343 33.642 54.2353 34.14 55.1393 35.043C56.0433 35.947 56.5403 37.148 56.5403 38.427C56.5403 39.705 56.0433 40.907 55.1393 41.811Z" fill="#0494FC"/>
<path d="M20.7072 50.936L24.8872 46.756C25.2782 46.365 25.2782 45.733 24.8872 45.342C24.4963 44.951 23.8643 44.951 23.4733 45.342L19.2932 49.522C18.9022 49.913 18.9022 50.545 19.2932 50.936C19.4882 51.131 19.7443 51.229 20.0003 51.229C20.2563 51.229 20.5122 51.131 20.7072 50.936Z" fill="#0494FC"/>
<path d="M30.0182 60.0249C29.6272 59.6339 28.9952 59.6339 28.6042 60.0249L22.1352 66.4929C21.7442 66.8839 21.7442 67.5159 22.1352 67.9069C22.3302 68.1019 22.5862 68.1999 22.8422 68.1999C23.0982 68.1999 23.3542 68.1019 23.5492 67.9069L30.0182 61.4389C30.4082 61.0489 30.4082 60.4159 30.0182 60.0249Z" fill="#0494FC"/>
<path d="M27.0933 52.62C26.7023 52.229 26.0703 52.229 25.6793 52.62L20.2043 58.095C19.8133 58.486 19.8133 59.118 20.2043 59.509C20.3993 59.704 20.6553 59.802 20.9113 59.802C21.1673 59.802 21.4233 59.704 21.6183 59.509L27.0933 54.034C27.4843 53.644 27.4843 53.011 27.0933 52.62Z" fill="#0494FC"/>
<path d="M43.2873 65.156L39.1073 69.336C38.7163 69.727 38.7163 70.359 39.1073 70.75C39.3023 70.945 39.5583 71.043 39.8143 71.043C40.0703 71.043 40.3263 70.945 40.5213 70.75L44.7013 66.57C45.0923 66.179 45.0923 65.547 44.7013 65.156C44.3103 64.765 43.6783 64.765 43.2873 65.156Z" fill="#0494FC"/>
<path d="M36.0093 62.95L30.5343 68.425C30.1433 68.816 30.1433 69.448 30.5343 69.839C30.7293 70.034 30.9853 70.132 31.2413 70.132C31.4973 70.132 31.7533 70.034 31.9483 69.839L37.4233 64.364C37.8143 63.973 37.8143 63.341 37.4233 62.95C37.0323 62.559 36.4003 62.559 36.0093 62.95Z" fill="#0494FC"/>
</svg>
