<svg width="21" height="20" viewBox="0 0 21 20" fill="none" xmlns="http://www.w3.org/2000/svg">
<g clip-path="url(#clip0_952_2281)">
<path d="M10.0843 0.626404C6.02185 0.626404 2.5531 3.2514 1.27185 6.8764L18.9593 6.8764C17.6468 3.2514 14.1781 0.626404 10.0843 0.626404Z" fill="#F9F9F9"/>
<path d="M10.0844 19.3749C14.1781 19.3749 17.6469 16.7499 18.9281 13.1249H1.27185C2.5531 16.7812 6.02185 19.3749 10.0844 19.3749Z" fill="#ED4C5C"/>
<path d="M1.27185 6.875C0.928101 7.84375 0.740601 8.90625 0.740601 10C0.740601 11.0938 0.928101 12.1563 1.27185 13.125H18.9594C19.3031 12.1563 19.4906 11.0938 19.4906 10C19.4906 8.90625 19.3031 7.84375 18.9594 6.875L1.27185 6.875Z" fill="#428BC1"/>
</g>
<defs>
<clipPath id="clip0_952_2281">
<rect width="20" height="20" fill="white" transform="translate(0.115601)"/>
</clipPath>
</defs>
</svg>
