<svg width="80" height="80" viewBox="0 0 80 80" fill="none" xmlns="http://www.w3.org/2000/svg">
<g filter="url(#filter0_d_651_782)">
<circle cx="40" cy="40" r="34.5" stroke="#0494FC" stroke-width="3"/>
</g>
<g filter="url(#filter1_d_651_782)">
<path d="M39.952 51.32C38.0747 51.32 36.4747 51.0213 35.152 50.424C33.8507 49.8267 32.8693 49.08 32.208 48.184C31.568 47.2667 31.2267 46.328 31.184 45.368C31.184 45.176 31.248 45.0267 31.376 44.92C31.5253 44.792 31.696 44.728 31.888 44.728H34.768C35.2373 44.728 35.5467 44.9413 35.696 45.368C36.1653 46.904 37.5947 47.672 39.984 47.672C41.2853 47.672 42.3093 47.3733 43.056 46.776C43.8027 46.1573 44.176 45.2827 44.176 44.152C44.176 42.0187 42.8427 40.952 40.176 40.952H36.88C36.6453 40.952 36.4533 40.8773 36.304 40.728C36.1547 40.5787 36.08 40.3973 36.08 40.184V38.84C36.08 38.4987 36.2293 38.1787 36.528 37.88L42.256 32.28H33.104C32.8907 32.28 32.7093 32.2053 32.56 32.056C32.4107 31.9067 32.336 31.7253 32.336 31.512V29.4C32.336 29.1653 32.4 28.9733 32.528 28.824C32.6773 28.6747 32.8693 28.6 33.104 28.6H46.832C47.0667 28.6 47.2587 28.6747 47.408 28.824C47.5573 28.9733 47.632 29.1653 47.632 29.4V31.32C47.632 31.64 47.4933 31.9387 47.216 32.216L41.68 37.912L42.064 37.944C44.112 38.1147 45.7333 38.7333 46.928 39.8C48.144 40.8667 48.752 42.392 48.752 44.376C48.752 45.784 48.368 47.0107 47.6 48.056C46.8533 49.1013 45.808 49.912 44.464 50.488C43.1413 51.0427 41.6373 51.32 39.952 51.32Z" fill="#0494FC"/>
</g>
<defs>
<filter id="filter0_d_651_782" x="0" y="0" width="80" height="80" filterUnits="userSpaceOnUse" color-interpolation-filters="sRGB">
<feFlood flood-opacity="0" result="BackgroundImageFix"/>
<feColorMatrix in="SourceAlpha" type="matrix" values="0 0 0 0 0 0 0 0 0 0 0 0 0 0 0 0 0 0 127 0" result="hardAlpha"/>
<feOffset/>
<feGaussianBlur stdDeviation="2"/>
<feColorMatrix type="matrix" values="0 0 0 0 0.0156863 0 0 0 0 0.580392 0 0 0 0 0.988235 0 0 0 1 0"/>
<feBlend mode="normal" in2="BackgroundImageFix" result="effect1_dropShadow_651_782"/>
<feBlend mode="normal" in="SourceGraphic" in2="effect1_dropShadow_651_782" result="shape"/>
</filter>
<filter id="filter1_d_651_782" x="27.184" y="24.6" width="25.568" height="30.72" filterUnits="userSpaceOnUse" color-interpolation-filters="sRGB">
<feFlood flood-opacity="0" result="BackgroundImageFix"/>
<feColorMatrix in="SourceAlpha" type="matrix" values="0 0 0 0 0 0 0 0 0 0 0 0 0 0 0 0 0 0 127 0" result="hardAlpha"/>
<feOffset/>
<feGaussianBlur stdDeviation="2"/>
<feColorMatrix type="matrix" values="0 0 0 0 0.0156863 0 0 0 0 0.580392 0 0 0 0 0.988235 0 0 0 1 0"/>
<feBlend mode="normal" in2="BackgroundImageFix" result="effect1_dropShadow_651_782"/>
<feBlend mode="normal" in="SourceGraphic" in2="effect1_dropShadow_651_782" result="shape"/>
</filter>
</defs>
</svg>
