<svg width="32" height="28" viewBox="0 0 32 28" fill="none" xmlns="http://www.w3.org/2000/svg">
<path d="M29.3333 4.66669H22.6667V3.33331C22.6667 1.86263 21.4708 0.666626 20 0.666626H12C10.5293 0.666626 9.33331 1.86256 9.33331 3.33331V4.66663H2.66669C1.19594 4.66669 0 5.86263 0 7.33331V24.6666C0 26.1373 1.19594 27.3333 2.66669 27.3333H29.3334C30.8041 27.3333 32.0001 26.1374 32.0001 24.6666V7.33331C32 5.86263 30.8041 4.66669 29.3333 4.66669ZM10.6667 3.33331C10.6667 2.59831 11.265 2 12 2H20C20.735 2 21.3333 2.59831 21.3333 3.33331V4.66663H10.6667V3.33331ZM30.6667 24.6667C30.6667 25.4017 30.0684 26 29.3334 26H2.66669C1.93169 26 1.33337 25.4017 1.33337 24.6667V14.9625C1.72719 15.1921 2.17881 15.3334 2.66669 15.3334H13.3334V17.3334C13.3334 17.7019 13.6316 18.0001 14.0001 18.0001H18.0001C18.3686 18.0001 18.6667 17.7019 18.6667 17.3334V15.3334H29.3334C29.8213 15.3334 30.273 15.1922 30.6667 14.9625V24.6667H30.6667ZM14.6667 16.6667V14H17.3334V16.6667H14.6667ZM30.6667 12.6667C30.6667 13.4017 30.0684 14 29.3334 14H18.6667V13.3333C18.6667 12.9648 18.3685 12.6666 18 12.6666H14C13.6315 12.6666 13.3333 12.9648 13.3333 13.3333V14H2.66669C1.93169 14 1.33337 13.4017 1.33337 12.6667V7.33338C1.33337 6.59838 1.93169 6.00006 2.66669 6.00006H29.3334C30.0684 6.00006 30.6667 6.59838 30.6667 7.33338V12.6667Z" fill="white"/>
</svg>
